<svg width="800" height="520" viewBox="0 0 800 520" xmlns="http://www.w3.org/2000/svg">
  <!-- Background -->
  <rect width="800" height="520" fill="#e2e8f0"/>

  <!-- Browser Window Shell -->
  <rect x="40" y="40" width="720" height="440" rx="12" fill="#ffffff" stroke="#cbd5e1" stroke-width="1"/>
  
  <!-- Browser Toolbar -->
  <path d="M40 52C40 45.3726 45.3726 40 52 40H748C754.627 40 760 45.3726 760 52V80H40V52Z" fill="#f8fafc"/>
  <circle cx="65" cy="60" r="5" fill="#e2e8f0"/>
  <circle cx="85" cy="60" r="5" fill="#e2e8f0"/>
  <circle cx="105" cy="60" r="5" fill="#e2e8f0"/>
  <rect x="135" y="52" width="580" height="16" rx="8" fill="#ffffff" stroke="#e2e8f0"/>

  <!-- Dashboard Content -->
  <text x="70" y="115" font-family="sans-serif" font-weight="800" font-size="22" fill="#0f172a">Scan Summary</text>
  
  <!-- Stats Grid -->
  <rect x="70" y="140" width="210" height="90" rx="10" fill="#ffffff" stroke="#e2e8f0"/>
  <text x="90" y="165" font-family="sans-serif" font-size="12" font-weight="600" fill="#64748b">Health Score</text>
  <text x="90" y="205" font-family="sans-serif" font-size="32" font-weight="bold" fill="#2563eb">92%</text>
  <circle cx="240" cy="185" r="20" stroke="#e2e8f0" stroke-width="4" fill="none"/>
  <path d="M240 165 A 20 20 0 1 1 225 198" stroke="#2563eb" stroke-width="4" fill="none" stroke-linecap="round"/>

  <rect x="295" y="140" width="210" height="90" rx="10" fill="#ffffff" stroke="#e2e8f0"/>
  <text x="315" y="165" font-family="sans-serif" font-size="12" font-weight="600" fill="#64748b">Total Issues</text>
  <text x="315" y="205" font-family="sans-serif" font-size="32" font-weight="bold" fill="#0f172a">18</text>
  <rect x="450" y="175" width="24" height="24" rx="4" fill="#e2e8f0"/>
  <path d="M455 187 L460 192 L469 182" stroke="#0f172a" stroke-width="2" fill="none"/>

  <rect x="520" y="140" width="210" height="90" rx="10" fill="#ffffff" stroke="#e2e8f0"/>
  <text x="540" y="165" font-family="sans-serif" font-size="12" font-weight="600" fill="#64748b">Pages Scanned</text>
  <text x="540" y="205" font-family="sans-serif" font-size="32" font-weight="bold" fill="#0f172a">124</text>

  <!-- Chart Section -->
  <text x="70" y="270" font-family="sans-serif" font-weight="700" font-size="16" fill="#0f172a">Issue Breakdown</text>
  
  <!-- Bar 1 -->
  <text x="70" y="300" font-family="sans-serif" font-size="12" fill="#64748b">Contrast Ratio</text>
  <rect x="200" y="290" width="530" height="12" rx="6" fill="#e2e8f0"/>
  <rect x="200" y="290" width="410" height="12" rx="6" fill="#2563eb"/>
  
  <!-- Bar 2 -->
  <text x="70" y="330" font-family="sans-serif" font-size="12" fill="#64748b">Missing Alt</text>
  <rect x="200" y="320" width="530" height="12" rx="6" fill="#e2e8f0"/>
  <rect x="200" y="320" width="120" height="12" rx="6" fill="#0f172a"/>

  <!-- Bar 3 -->
  <text x="70" y="360" font-family="sans-serif" font-size="12" fill="#64748b">ARIA Labels</text>
  <rect x="200" y="350" width="530" height="12" rx="6" fill="#e2e8f0"/>
  <rect x="200" y="350" width="340" height="12" rx="6" fill="#2563eb"/>

  <!-- List View Mock -->
  <rect x="70" y="390" width="660" height="70" rx="10" fill="#f8fafc" stroke="#e2e8f0"/>
  <circle cx="100" cy="425" r="15" fill="#e2e8f0"/>
  <path d="M95 425 L105 425 M100 420 L100 430" stroke="#0f172a" stroke-width="2"/>
  <rect x="130" y="415" width="180" height="8" rx="4" fill="#0f172a"/>
  <rect x="130" y="430" width="120" height="6" rx="3" fill="#cbd5e1"/>
  <rect x="620" y="415" width="80" height="20" rx="10" fill="#2563eb"/>
</svg>
