<svg width="800" height="520" viewBox="0 0 800 520" xmlns="http://www.w3.org/2000/svg">
  <!-- Background -->
  <rect width="800" height="520" fill="#e2e8f0"/>
  
  <!-- Shadow for Browser -->
  <rect x="45" y="45" width="720" height="440" rx="12" fill="#000000" fill-opacity="0.05"/>
  
  <!-- Browser Window -->
  <rect x="40" y="40" width="720" height="440" rx="12" fill="#ffffff"/>
  
  <!-- Browser Header -->
  <path d="M40 52C40 45.3726 45.3726 40 52 40H748C754.627 40 760 45.3726 760 52V80H40V52Z" fill="#f8fafc"/>
  <circle cx="60" cy="60" r="6" fill="#ff5f56"/>
  <circle cx="80" cy="60" r="6" fill="#ffbd2e"/>
  <circle cx="100" cy="60" r="6" fill="#27c93f"/>
  
  <!-- Title -->
  <text x="80" y="125" font-family="sans-serif" font-size="28" font-weight="bold" fill="#0f172a">Fix Recommendations</text>
  <text x="80" y="150" font-family="sans-serif" font-size="14" fill="#64748b">Identify and resolve critical accessibility issues</text>
  
  <!-- Card 1: Contrast -->
  <g transform="translate(80, 180)">
    <rect width="200" height="260" rx="8" fill="#ffffff" stroke="#e2e8f0" stroke-width="1"/>
    <circle cx="30" cy="30" r="12" fill="#4f46e5" fill-opacity="0.1"/>
    <circle cx="30" cy="30" r="6" fill="#4f46e5"/>
    <text x="20" y="65" font-family="sans-serif" font-size="16" font-weight="bold" fill="#0f172a">Color Contrast</text>
    <text x="20" y="85" font-family="sans-serif" font-size="12" fill="#64748b">Improve readability of text</text>
    
    <!-- Code Snippet -->
    <rect x="15" y="110" width="170" height="130" rx="6" fill="#0f172a"/>
    <rect x="25" y="130" width="40" height="6" rx="3" fill="#4f46e5"/>
    <rect x="25" y="145" width="120" height="6" rx="3" fill="#2563eb"/>
    <rect x="25" y="160" width="90" height="6" rx="3" fill="#ffffff" fill-opacity="0.8"/>
    <rect x="25" y="185" width="30" height="6" rx="3" fill="#4f46e5"/>
    <rect x="25" y="200" width="100" height="6" rx="3" fill="#ffffff" fill-opacity="0.4"/>
  </g>
  
  <!-- Card 2: Labels -->
  <g transform="translate(300, 180)">
    <rect width="200" height="260" rx="8" fill="#ffffff" stroke="#e2e8f0" stroke-width="1"/>
    <rect x="18" y="18" width="24" height="24" rx="4" fill="#2563eb" fill-opacity="0.1"/>
    <rect x="24" y="27" width="12" height="6" rx="1" fill="#2563eb"/>
    <text x="20" y="65" font-family="sans-serif" font-size="16" font-weight="bold" fill="#0f172a">Form Labels</text>
    <text x="20" y="85" font-family="sans-serif" font-size="12" fill="#64748b">Define input relationships</text>
    
    <!-- Code Snippet -->
    <rect x="15" y="110" width="170" height="130" rx="6" fill="#0f172a"/>
    <rect x="25" y="130" width="60" height="6" rx="3" fill="#4f46e5"/>
    <rect x="25" y="145" width="100" height="6" rx="3" fill="#ffffff" fill-opacity="0.8"/>
    <rect x="25" y="160" width="40" height="6" rx="3" fill="#2563eb"/>
    <rect x="40" y="185" width="110" height="6" rx="3" fill="#ffffff" fill-opacity="0.4"/>
    <rect x="40" y="200" width="70" height="6" rx="3" fill="#2563eb"/>
  </g>
  
  <!-- Card 3: ARIA -->
  <g transform="translate(520, 180)">
    <rect width="200" height="260" rx="8" fill="#ffffff" stroke="#e2e8f0" stroke-width="1"/>
    <rect x="18" y="18" width="24" height="24" rx="4" fill="#4f46e5" fill-opacity="0.1"/>
    <path d="M24 30 L28 26 L24 22 M36 30 L32 26 L36 22" stroke="#4f46e5" stroke-width="2" fill="none"/>
    <text x="20" y="65" font-family="sans-serif" font-size="16" font-weight="bold" fill="#0f172a">ARIA Roles</text>
    <text x="20" y="85" font-family="sans-serif" font-size="12" fill="#64748b">Semantic web structure</text>
    
    <!-- Code Snippet -->
    <rect x="15" y="110" width="170" height="130" rx="6" fill="#0f172a"/>
    <rect x="25" y="130" width="80" height="6" rx="3" fill="#2563eb"/>
    <rect x="25" y="145" width="130" height="6" rx="3" fill="#4f46e5"/>
    <rect x="25" y="160" width="60" height="6" rx="3" fill="#ffffff" fill-opacity="0.8"/>
    <rect x="25" y="185" width="90" height="6" rx="3" fill="#ffffff" fill-opacity="0.4"/>
    <rect x="25" y="200" width="50" height="6" rx="3" fill="#4f46e5"/>
  </g>
</svg>
